<svg width="1784" height="265" viewBox="0 0 1784 265" fill="none" xmlns="http://www.w3.org/2000/svg">
<g clip-path="url(#clip0_3339_5582)">
<path d="M744.659 250.015C735.062 253.763 726.154 256.821 718.003 259.112C709.852 261.413 700.055 262.559 688.657 262.559C677.859 262.559 670.309 260.657 666.061 256.91C661.813 253.007 658.755 248.358 656.964 242.865C649.914 248.57 642.063 253.318 633.412 257.121C624.76 260.768 613.462 262.57 599.462 262.57C585.461 262.57 575.008 260.268 566.612 255.62C558.361 250.871 552.512 244.967 549.109 237.916C545.806 230.766 544.205 223.36 544.205 215.865C544.205 204.411 547.052 195.014 552.757 187.619C558.606 180.069 566.357 173.919 576.109 169.215C585.862 164.467 598.705 159.563 614.763 154.47C623.859 151.568 630.765 149.366 635.358 147.92C640.106 146.319 643.609 145.118 645.955 144.273C648.257 143.428 650.704 142.327 653.25 140.97C653.25 131.974 651.449 124.924 647.801 119.819C644.154 114.715 636.247 112.169 624.104 112.169C609.748 112.169 596.448 115.316 584.149 121.665C571.85 127.971 560.596 136.111 550.399 146.119V95.6106C558.55 89.7614 567.346 85.1687 576.854 81.5102C586.351 77.7626 596.259 74.9603 606.601 73.1144C616.954 71.3129 627.396 70.3677 637.949 70.3677C664.804 70.3677 684.998 75.6164 698.498 86.0695C712.098 96.4224 718.949 110.667 718.949 128.916V200.619C718.949 207.425 719.549 212.518 720.75 215.921C722.096 219.223 724.453 220.825 727.856 220.825C732.004 220.825 737.608 219.079 744.659 215.52V250.015ZM653.25 214.464V170.517C637.704 176.811 626.295 182.571 619.144 187.664C611.994 192.668 608.391 199.463 608.391 208.114C608.391 214.319 610.137 219.068 613.695 222.37C617.343 225.673 621.546 227.274 626.295 227.274C631.043 227.274 635.246 226.073 639.594 223.627C644.098 221.08 648.646 218.022 653.295 214.53L653.25 214.486V214.464Z" fill="white"/>
<path d="M887.107 259.053H744.656V70.4023H884.816V107.996H801.659V142.647H881.013V180.7H801.659V221.056H887.162V259.109L887.118 259.053H887.107Z" fill="white"/>
<path d="M283.512 148.05V226.814C283.512 233.12 285.68 236.278 289.973 236.278C294.265 236.278 301.304 232.964 310.712 226.403V248.744C302.383 254.126 295.711 257.795 290.64 259.708C285.625 261.676 280.354 262.599 274.816 262.599C259.092 262.599 249.84 256.439 247.037 244.084C231.469 256.183 214.866 262.188 197.285 262.188C184.408 262.188 173.644 257.951 165.059 249.411C156.474 240.882 152.182 230.173 152.182 217.296C152.182 205.608 156.374 195.155 164.747 185.959C173.121 176.751 185.075 169.456 200.488 164.085L247.393 147.95V138.075C247.393 115.779 236.217 104.659 213.977 104.659C193.96 104.659 174.511 115 155.584 135.695V95.6068C169.807 78.8486 190.291 70.4194 217.035 70.4194C237.051 70.4194 253.087 75.6459 265.186 86.1435C269.222 89.5018 272.836 93.9499 276.05 99.5433C279.253 105.126 281.321 110.664 282.199 116.246C283.078 121.828 283.489 132.381 283.489 147.95V148.05H283.512ZM247.46 222.733V167.755L222.895 177.218C210.429 182.178 201.589 187.204 196.418 192.219C191.247 197.235 188.656 203.551 188.656 211.046C188.656 218.541 191.091 224.957 195.995 229.772C200.911 234.588 207.216 237.012 215.033 237.012C226.721 237.012 237.529 232.252 247.46 222.733Z" fill="white"/>
<path d="M330.463 0.553223H367.782V259.099H330.463V0.553223Z" fill="white"/>
<path d="M385.838 100.302L456.118 31.29V70.3332H515.9V104.661H456.118V196.548C456.118 218.132 465.092 228.941 483.029 228.941C496.429 228.941 510.629 224.504 525.564 215.597V250.526C511.163 258.599 495.483 262.658 478.492 262.658C461.5 262.658 447.099 257.643 435.757 247.668C432.165 244.654 429.262 241.285 426.949 237.482C424.625 233.734 422.679 228.774 421.089 222.703C419.51 216.631 418.72 205.022 418.72 187.874V104.628H385.849V100.291L385.838 100.302Z" fill="white"/>
<path d="M1066.47 70.3848L1009.5 141.81L950.983 71.8193L949.782 70.3848H916.621V259.084H953.952V129.611L1002.93 190.439L1004.47 192.429H1014.53L1064.39 129.767V259.084H1101.88V70.3848H1066.47Z" fill="white"/>
<path d="M1245.14 86.8373L1244.59 86.3369C1233.39 76.1619 1218.4 70.8464 1200.02 70.5239H1133.57V259.056H1171.06V187.387H1185.68C1203.99 187.387 1218.37 185.352 1228.41 181.315C1238.89 177.1 1247.26 170.272 1253.29 161.009L1253.61 160.509C1259.37 151.368 1262.3 140.815 1262.3 129.15C1262.3 111.691 1256.53 97.4571 1245.15 86.8484L1245.14 86.8373ZM1224 128.494C1224 136.178 1221.78 142.138 1217.39 146.197L1216.95 146.597C1212.08 150.868 1204.75 153.025 1195.19 153.025H1171.05V104.852H1193.6C1204.18 104.852 1212.05 106.865 1216.97 110.824C1221.7 114.616 1224 120.398 1224 128.494Z" fill="white"/>
<path d="M1326.16 70.498H1288.82V259.12H1410.53V224.213H1326.16V70.498Z" fill="white"/>
<path d="M1474.82 182.357H1551.58V147.862H1474.82V101.757H1554.27V70.498H1437.48V259.242H1556.8V230.085H1474.82V182.357Z" fill="white"/>
<path d="M1754.69 98.6789L1752.9 96.9833C1733.88 79.3516 1709.99 70.4194 1681.88 70.4194C1653.78 70.4194 1629.16 79.6619 1610.45 97.892C1591.55 116.1 1581.98 139.428 1581.98 167.233C1581.98 195.038 1590.94 216.371 1609.4 234.479L1610.27 235.322C1628.99 253.308 1652.63 262.417 1680.53 262.417C1708.43 262.417 1734.78 252.809 1753.55 235.366C1772.91 217.368 1782.73 194.273 1782.73 166.723C1782.73 139.173 1773.3 116.82 1754.7 98.69L1754.69 98.6789ZM1728.05 122.561C1740.14 134.308 1746.27 148.992 1746.27 166.202C1746.27 183.413 1740.14 198.651 1728.55 210.232L1727.97 210.797C1715.83 222.721 1700.41 228.772 1682.16 228.772C1663.91 228.772 1649.12 223.031 1637.19 211.706L1636.05 210.597C1624.41 199.072 1618.51 184.477 1618.51 167.222C1618.51 149.967 1624.74 133.787 1636.51 122.361C1648.52 110.703 1664.13 104.796 1682.91 104.796C1700.4 104.796 1715.38 110.592 1727.46 122.007L1728.04 122.55L1728.05 122.561Z" fill="white"/>
<path d="M0.500315 245.917V206.429C10.831 213.68 21.3952 219.562 32.2152 224.066C43.0352 228.57 52.0871 230.827 59.471 230.827C66.8548 230.827 73.6604 228.97 79.1983 225.189C84.6805 221.419 87.4717 216.904 87.4717 211.667C87.4717 206.429 85.7147 201.825 82.134 198.289C78.5644 194.708 70.8803 189.615 59.0817 182.854C35.4401 169.677 20.0275 158.456 12.6881 149.104C5.39322 139.741 1.72354 129.611 1.72354 118.579C1.72354 104.323 7.2503 92.7136 18.3149 83.7507C29.3796 74.7878 43.6135 70.2285 61.0945 70.2285C89.629 70.2285 104.452 82.7464 122.512 95.5792V135.682C103.329 118.045 87.6608 102.021 63.4854 102.021C56.3906 102.021 50.6081 103.545 46.2601 106.581C41.901 109.616 39.6992 113.586 39.6992 118.579C39.6992 122.894 41.6563 127.008 45.6263 130.878C49.5851 134.793 56.5352 139.496 66.4211 144.99L79.4874 152.44C110.368 169.877 125.781 189.237 125.781 210.444C125.781 225.634 119.854 238.077 107.966 247.819C96.0788 257.571 80.8552 262.42 62.2065 262.42C51.1975 262.42 41.4117 261.241 32.838 258.895C24.2198 256.537 13.4554 252.233 0.433594 245.906H0.478075L0.500315 245.917Z" fill="white"/>
</g>
<defs>
<clipPath id="clip0_3339_5582">
<rect width="1783.69" height="263.55" fill="white" transform="translate(0 0.553223)"/>
</clipPath>
</defs>
</svg>
